<svg width="32" height="32" viewBox="0 0 32 32" fill="none" xmlns="http://www.w3.org/2000/svg">
<g clip-path="url(#clip0_164_21077)">
<mask id="mask0_164_21077" style="mask-type:luminance" maskUnits="userSpaceOnUse" x="0" y="0" width="32" height="32">
<path d="M32 0H0V32H32V0Z" fill="white"/>
</mask>
<g mask="url(#mask0_164_21077)">
<path d="M11.2 8.66666H20.8C25.3333 8.66666 25.7867 10.7867 26.0933 13.3733L27.2933 23.3733C27.68 26.6533 26.6667 29.3333 22 29.3333H10.0134C5.33338 29.3333 4.32003 26.6533 4.72003 23.3733L5.92004 13.3733C6.21338 10.7867 6.6667 8.66666 11.2 8.66666Z" stroke="black" stroke-width="1.5" stroke-linecap="round" stroke-linejoin="round"/>
<path d="M10.6667 10.6667V5.99999C10.6667 3.99999 12.0001 2.66666 14.0001 2.66666H18.0001C20.0001 2.66666 21.3334 3.99999 21.3334 5.99999V10.6667" stroke="black" stroke-width="1.5" stroke-linecap="round" stroke-linejoin="round"/>
<path d="M27.2134 22.7057H10.6667" stroke="black" stroke-width="1.5" stroke-linecap="round" stroke-linejoin="round"/>
</g>
</g>
<defs>
<clipPath id="clip0_164_21077">
<rect width="32" height="32" fill="white"/>
</clipPath>
</defs>
</svg>
