<svg width="130" height="131" viewBox="0 0 130 131" fill="none" xmlns="http://www.w3.org/2000/svg">
<g clip-path="url(#clip0_240_24547)">
<path d="M73.9004 61.9007C74.0828 62.2569 74.3599 62.5558 74.7013 62.7645C75.0427 62.9732 75.4351 63.0837 75.8352 63.0836C76.1764 63.0835 76.5128 63.0026 76.8168 62.8475C76.9445 62.7825 89.6976 56.3041 95.9873 54.3173C97.1271 53.9555 97.7596 52.7378 97.3978 51.5983C97.3123 51.3267 97.1742 51.0746 96.9913 50.8565C96.8083 50.6383 96.5842 50.4584 96.3316 50.327C96.0791 50.1956 95.8031 50.1153 95.5194 50.0907C95.2358 50.066 94.9501 50.0976 94.6787 50.1835C88.0531 52.2787 75.3868 58.7137 74.8495 58.9866C73.7834 59.5282 73.3589 60.8328 73.9004 61.9007ZM75.8352 37.0841C76.1764 37.0839 76.5128 37.003 76.8168 36.848C76.9445 36.783 89.6976 30.3046 95.9873 28.3178C97.1271 27.956 97.7596 26.7383 97.3978 25.5987C97.3123 25.3271 97.1742 25.0751 96.9913 24.8569C96.8083 24.6388 96.5842 24.4589 96.3316 24.3275C96.0791 24.1961 95.8031 24.1157 95.5194 24.0911C95.2358 24.0665 94.9501 24.0981 94.6787 24.184C88.0531 26.2792 75.3868 32.7141 74.8495 32.9871C73.7836 33.5287 73.3589 34.833 73.9004 35.9011C74.0828 36.2573 74.36 36.5562 74.7013 36.7649C75.0427 36.9736 75.4351 37.0841 75.8352 37.0841Z" fill="#D0217C"/>
<path d="M127.833 32.7511C127.548 32.751 127.267 32.8069 127.004 32.9158C126.741 33.0246 126.502 33.1842 126.301 33.3854C126.099 33.5866 125.94 33.8255 125.831 34.0884C125.722 34.3513 125.666 34.6331 125.666 34.9176V119.417C125.666 123.001 122.75 125.917 119.166 125.917H67.1668V120.932C70.3259 119.827 78.5547 117.25 86.6666 117.25C105.54 117.25 118.356 121.43 118.484 121.473C118.81 121.58 119.156 121.609 119.495 121.557C119.834 121.505 120.155 121.374 120.434 121.174C120.712 120.973 120.939 120.709 121.095 120.404C121.252 120.098 121.333 119.76 121.333 119.417V24.0846C121.334 23.5915 121.166 23.113 120.857 22.7284C120.549 22.3438 120.118 22.0762 119.636 21.9698C119.636 21.9698 117.938 21.5907 115.034 21.0575C113.862 20.8409 112.729 21.6209 112.512 22.7952C112.296 23.9738 113.073 25.1027 114.25 25.3193C115.168 25.4876 116.084 25.6632 117 25.8459V116.537C112.09 115.25 101.187 112.917 86.6664 112.917C77.2262 112.917 67.9531 116.017 65.0843 117.068C62.5341 115.942 54.8253 112.917 45.4999 112.917C30.5759 112.917 18.2824 115.378 13.0001 116.629V25.7613C17.3269 24.6975 30.1059 21.9177 45.4999 21.9177C53.3996 21.9177 60.1745 24.3768 62.8332 25.4884V110.75C62.8333 111.134 62.9352 111.51 63.1284 111.842C63.3217 112.173 63.5994 112.447 63.9331 112.636C64.2669 112.825 64.6448 112.921 65.0282 112.916C65.4117 112.911 65.7869 112.805 66.1156 112.607C66.3302 112.48 87.7973 99.6571 106.851 93.3067C107.282 93.163 107.658 92.887 107.924 92.518C108.19 92.1489 108.333 91.7055 108.333 91.2506V2.41788C108.333 2.06765 108.248 1.72266 108.085 1.41249C107.922 1.10232 107.687 0.836217 107.399 0.637C107.111 0.437133 106.779 0.310053 106.432 0.266669C106.084 0.223285 105.731 0.264892 105.404 0.38792C88.0682 6.8899 70.5272 17.8055 70.3515 17.9139C69.3374 18.5487 69.0277 19.8855 69.6624 20.8996C70.2952 21.9137 71.632 22.2234 72.6481 21.5887C72.8083 21.4869 88.0682 11.9926 103.999 5.58585V89.6995C89.2098 94.8388 73.7681 103.23 67.1663 106.987V24.0846C67.1662 23.682 67.0541 23.2874 66.8425 22.9449C66.6309 22.6024 66.3281 22.3256 65.9681 22.1455C65.5954 21.9614 56.7166 17.5846 45.4999 17.5846C25.9221 17.5846 10.8704 21.8205 10.2377 22.0023C9.78509 22.1315 9.38693 22.4046 9.10348 22.7803C8.82003 23.1561 8.66672 23.6139 8.66675 24.0846V119.417C8.66737 119.752 8.74532 120.083 8.89453 120.382C9.04373 120.682 9.26017 120.944 9.52698 121.146C9.90321 121.431 10.362 121.584 10.8336 121.584C11.0329 121.584 11.2322 121.556 11.4272 121.499C11.5767 121.458 26.5591 117.251 45.4999 117.251C53.4212 117.251 60.1898 119.716 62.8332 120.823V125.917H10.8336C7.24996 125.917 4.33362 123.001 4.33362 119.417V34.9179C4.33362 33.722 3.36294 32.7513 2.16705 32.7513C0.971164 32.7513 0.000488281 33.722 0.000488281 34.9179V119.417C0.000488281 125.391 4.86022 130.251 10.8338 130.251H119.166C125.14 130.251 130 125.391 130 119.417V34.9179C130 34.6333 129.944 34.3515 129.835 34.0886C129.726 33.8257 129.566 33.5868 129.365 33.3856C129.164 33.1843 128.925 33.0247 128.662 32.9159C128.399 32.807 128.117 32.751 127.833 32.7511Z" fill="#D0217C"/>
<path d="M73.9008 48.9011C74.0832 49.2573 74.3603 49.5562 74.7017 49.765C75.043 49.9737 75.4354 50.0841 75.8356 50.0841C76.1768 50.0839 76.5132 50.003 76.8171 49.848C76.9449 49.783 89.698 43.3046 95.9877 41.3178C97.1275 40.956 97.7599 39.7383 97.3981 38.5987C97.3127 38.3271 97.1746 38.0751 96.9916 37.8569C96.8087 37.6388 96.5845 37.4589 96.332 37.3275C96.0794 37.1961 95.8034 37.1157 95.5198 37.0911C95.2362 37.0665 94.9505 37.0981 94.6791 37.184C88.0534 39.2792 75.3872 45.7141 74.8499 45.9871C73.7838 46.5287 73.3592 47.8332 73.9008 48.9011ZM73.9008 74.9009C74.0832 75.2571 74.3603 75.556 74.7017 75.7648C75.043 75.9735 75.4354 76.0839 75.8356 76.0839C76.1768 76.0837 76.5132 76.0028 76.8171 75.8478C76.9449 75.7828 89.698 69.3044 95.9877 67.3176C97.1275 66.9558 97.7599 65.7381 97.3981 64.5985C97.3127 64.3269 97.1746 64.0749 96.9916 63.8567C96.8087 63.6386 96.5845 63.4587 96.332 63.3273C96.0794 63.1959 95.8034 63.1155 95.5198 63.0909C95.2362 63.0663 94.9505 63.0979 94.6791 63.1838C88.0534 65.279 75.3872 71.7139 74.8499 71.9869C73.7838 72.5285 73.3592 73.833 73.9008 74.9009ZM52.4944 40.4601C39.1154 37.3206 23.9119 41.3203 23.2728 41.4915C22.9946 41.5621 22.7332 41.6873 22.5039 41.8598C22.2745 42.0323 22.0816 42.2486 21.9365 42.4962C21.7914 42.7439 21.6969 43.0179 21.6586 43.3023C21.6202 43.5867 21.6388 43.8759 21.7131 44.1532C21.7875 44.4304 21.9161 44.6901 22.0916 44.9171C22.2672 45.1442 22.486 45.3342 22.7356 45.476C22.9851 45.6178 23.2603 45.7086 23.5452 45.7432C23.8302 45.7777 24.1191 45.7553 24.3953 45.6773C24.5405 45.6362 39.1784 41.786 51.5067 44.6785C52.6658 44.9494 53.8381 44.2278 54.111 43.0621C54.3837 41.8987 53.6601 40.733 52.4944 40.4601ZM52.4944 53.46C39.1154 50.3228 23.9119 54.3202 23.2728 54.4914C22.9946 54.562 22.7332 54.6872 22.5039 54.8597C22.2745 55.0322 22.0816 55.2485 21.9365 55.4962C21.7914 55.7438 21.6969 56.0178 21.6586 56.3022C21.6202 56.5866 21.6388 56.8758 21.7131 57.1531C21.7875 57.4303 21.9161 57.69 22.0916 57.917C22.2672 58.1441 22.486 58.3341 22.7356 58.4759C22.9851 58.6177 23.2603 58.7085 23.5452 58.7431C23.8302 58.7776 24.1191 58.7552 24.3953 58.6772C24.5405 58.6361 39.1784 54.7859 51.5067 57.6784C52.6658 57.9493 53.8381 57.2277 54.111 56.062C54.3837 54.8986 53.6601 53.7329 52.4944 53.46ZM73.9008 87.9008C74.0832 88.257 74.3603 88.5559 74.7017 88.7647C75.043 88.9734 75.4354 89.0838 75.8356 89.0838C76.1768 89.0836 76.5132 89.0027 76.8171 88.8477C76.9449 88.7827 89.698 82.3043 95.9877 80.3175C97.1275 79.9557 97.7599 78.738 97.3981 77.5984C97.3127 77.3268 97.1746 77.0748 96.9916 76.8566C96.8087 76.6385 96.5845 76.4586 96.332 76.3272C96.0794 76.1958 95.8034 76.1154 95.5198 76.0908C95.2362 76.0662 94.9505 76.0977 94.6791 76.1837C88.0534 78.2789 75.3872 84.7138 74.8499 84.9868C73.7838 85.5284 73.3592 86.8329 73.9008 87.9008ZM52.4944 66.4599C39.1154 63.3227 23.9119 67.3178 23.2728 67.4913C22.7178 67.6402 22.2446 68.0034 21.9574 68.5011C21.6701 68.9988 21.5923 69.5902 21.741 70.1453C21.8644 70.6058 22.1361 71.0129 22.514 71.3035C22.892 71.5941 23.3551 71.7521 23.8319 71.753C24.0183 71.753 24.2067 71.7271 24.3953 71.6771C24.5405 71.636 39.1784 67.7858 51.5067 70.6783C52.6658 70.9492 53.8381 70.2276 54.111 69.0619C54.3837 67.8985 53.6601 66.7328 52.4944 66.4599ZM52.4944 92.4597C39.1154 89.3202 23.9119 93.3199 23.2728 93.4911C22.7178 93.64 22.2446 94.0032 21.9574 94.5009C21.6701 94.9986 21.5923 95.59 21.741 96.1451C21.8644 96.6056 22.1361 97.0127 22.514 97.3033C22.892 97.5939 23.3551 97.7519 23.8319 97.7528C24.0183 97.7528 24.2067 97.7269 24.3953 97.6769C24.5405 97.6358 39.1784 93.7856 51.5067 96.6781C52.6658 96.9467 53.8381 96.2274 54.111 95.0617C54.3837 93.8983 53.6601 92.7326 52.4944 92.4597ZM52.4944 79.4598C39.1154 76.3203 23.9119 80.3177 23.2728 80.4912C22.7178 80.6401 22.2446 81.0033 21.9574 81.501C21.6701 81.9987 21.5923 82.5901 21.741 83.1452C21.8644 83.6057 22.1361 84.0128 22.514 84.3034C22.892 84.594 23.3551 84.752 23.8319 84.7529C24.0183 84.7529 24.2067 84.727 24.3953 84.677C24.5405 84.6359 39.1784 80.7857 51.5067 83.6782C52.6658 83.9491 53.8381 83.2275 54.111 82.0618C54.3837 80.8984 53.6601 79.7327 52.4944 79.4598Z" fill="#D0217C"/>
</g>
<defs>
<clipPath id="clip0_240_24547">
<rect width="130" height="130" fill="white" transform="translate(0 0.25)"/>
</clipPath>
</defs>
</svg>
