<svg width="21" height="21" viewBox="0 0 21 21" fill="none" xmlns="http://www.w3.org/2000/svg">
<path d="M17.0625 2.625H15.75C15.75 1.90137 15.1611 1.3125 14.4375 1.3125C13.7139 1.3125 13.125 1.90137 13.125 2.625H7.875C7.875 1.90137 7.28613 1.3125 6.5625 1.3125C5.83887 1.3125 5.25 1.90137 5.25 2.625H3.9375C2.73131 2.625 1.75 3.60631 1.75 4.8125V17.5C1.75 18.7062 2.73131 19.6875 3.9375 19.6875H17.0625C18.2687 19.6875 19.25 18.7062 19.25 17.5V4.8125C19.25 3.60631 18.2687 2.625 17.0625 2.625ZM14 2.625C14.005 2.51235 14.0533 2.40599 14.1348 2.32806C14.2163 2.25013 14.3247 2.20663 14.4375 2.20663C14.5503 2.20663 14.6587 2.25013 14.7402 2.32806C14.8217 2.40599 14.87 2.51235 14.875 2.625V3.5C14.87 3.61265 14.8217 3.71901 14.7402 3.79694C14.6587 3.87487 14.5503 3.91837 14.4375 3.91837C14.3247 3.91837 14.2163 3.87487 14.1348 3.79694C14.0533 3.71901 14.005 3.61265 14 3.5V2.625ZM6.125 2.625C6.13004 2.51235 6.17833 2.40599 6.25983 2.32806C6.34132 2.25013 6.44974 2.20663 6.5625 2.20663C6.67526 2.20663 6.78368 2.25013 6.86517 2.32806C6.94667 2.40599 6.99496 2.51235 7 2.625V3.5C6.99496 3.61265 6.94667 3.71901 6.86517 3.79694C6.78368 3.87487 6.67526 3.91837 6.5625 3.91837C6.44974 3.91837 6.34132 3.87487 6.25983 3.79694C6.17833 3.71901 6.13004 3.61265 6.125 3.5V2.625ZM2.625 4.8125C2.625 4.08888 3.21387 3.5 3.9375 3.5H5.25C5.25 4.22362 5.83887 4.8125 6.5625 4.8125C7.28613 4.8125 7.875 4.22362 7.875 3.5H13.125C13.125 4.22362 13.7139 4.8125 14.4375 4.8125C15.1611 4.8125 15.75 4.22362 15.75 3.5H17.0625C17.7861 3.5 18.375 4.08888 18.375 4.8125V6.5625H2.625V4.8125ZM18.375 17.5C18.375 18.2236 17.7861 18.8125 17.0625 18.8125H3.9375C3.21387 18.8125 2.625 18.2236 2.625 17.5V7.4375H18.375V17.5Z" fill="#428E2C"/>
<path d="M5.25 12.25H6.5625C7.04506 12.25 7.4375 11.8576 7.4375 11.375V10.0625C7.4375 9.57994 7.04506 9.1875 6.5625 9.1875H5.25C4.76744 9.1875 4.375 9.57994 4.375 10.0625V11.375C4.375 11.8576 4.76744 12.25 5.25 12.25ZM5.25 10.0625H6.5625L6.56337 11.375H5.25V10.0625ZM9.84375 12.25H11.1563C11.6388 12.25 12.0313 11.8576 12.0313 11.375V10.0625C12.0313 9.57994 11.6388 9.1875 11.1563 9.1875H9.84375C9.36119 9.1875 8.96875 9.57994 8.96875 10.0625V11.375C8.96875 11.8576 9.36119 12.25 9.84375 12.25ZM9.84375 10.0625H11.1563L11.1571 11.375H9.84375V10.0625ZM14.4375 12.25H15.75C16.2326 12.25 16.625 11.8576 16.625 11.375V10.0625C16.625 9.57994 16.2326 9.1875 15.75 9.1875H14.4375C13.9549 9.1875 13.5625 9.57994 13.5625 10.0625V11.375C13.5625 11.8576 13.9549 12.25 14.4375 12.25ZM14.4375 10.0625H15.75L15.7509 11.375H14.4375V10.0625ZM5.25 17.0625H6.5625C7.04506 17.0625 7.4375 16.6701 7.4375 16.1875V14.875C7.4375 14.3924 7.04506 14 6.5625 14H5.25C4.76744 14 4.375 14.3924 4.375 14.875V16.1875C4.375 16.6701 4.76744 17.0625 5.25 17.0625ZM5.25 14.875H6.5625L6.56337 16.1875H5.25V14.875ZM9.84375 17.0625H11.1563C11.6388 17.0625 12.0313 16.6701 12.0313 16.1875V14.875C12.0313 14.3924 11.6388 14 11.1563 14H9.84375C9.36119 14 8.96875 14.3924 8.96875 14.875V16.1875C8.96875 16.6701 9.36119 17.0625 9.84375 17.0625ZM9.84375 14.875H11.1563L11.1571 16.1875H9.84375V14.875ZM14.4375 17.0625H15.75C16.2326 17.0625 16.625 16.6701 16.625 16.1875V14.875C16.625 14.3924 16.2326 14 15.75 14H14.4375C13.9549 14 13.5625 14.3924 13.5625 14.875V16.1875C13.5625 16.6701 13.9549 17.0625 14.4375 17.0625ZM14.4375 14.875H15.75L15.7509 16.1875H14.4375V14.875Z" fill="#428E2C"/>
</svg>
