<svg width="40" height="40" viewBox="0 0 40 40" fill="none" xmlns="http://www.w3.org/2000/svg">
<path d="M2.86886 37.1312C2.98495 37.2474 3.12281 37.3396 3.27456 37.4025C3.42631 37.4655 3.58897 37.4978 3.75324 37.4978C3.91751 37.4978 4.08016 37.4655 4.23191 37.4025C4.38366 37.3396 4.52152 37.2474 4.63761 37.1312L20.0001 21.7687L35.3689 37.1312C35.6034 37.3658 35.9215 37.4975 36.2532 37.4975C36.5849 37.4975 36.9031 37.3658 37.1376 37.1312C37.3722 36.8967 37.5039 36.5786 37.5039 36.2468C37.5039 35.9151 37.3722 35.597 37.1376 35.3625L21.7689 20L37.1314 4.63122C37.3659 4.39667 37.4977 4.07855 37.4977 3.74685C37.4977 3.41514 37.3659 3.09703 37.1314 2.86247C36.8968 2.62792 36.5787 2.49615 36.247 2.49615C35.9153 2.49615 35.5972 2.62792 35.3626 2.86247L20.0001 18.2312L4.63136 2.86872C4.39223 2.66394 4.08464 2.55693 3.77005 2.56909C3.45545 2.58124 3.15703 2.71165 2.93441 2.93427C2.71179 3.15689 2.58137 3.45531 2.56922 3.76991C2.55707 4.0845 2.66408 4.3921 2.86886 4.63122L18.2314 20L2.86886 35.3687C2.63605 35.6029 2.50537 35.9197 2.50537 36.25C2.50537 36.5802 2.63605 36.897 2.86886 37.1312Z" fill="#D0217C"/>
</svg>
