<svg width="100" height="70" viewBox="0 0 100 70" fill="none" xmlns="http://www.w3.org/2000/svg">
<path d="M0 41.6584C1.74517 50.2138 8.553 58.864 18.9928 64.4007C29.4322 69.9375 40.9912 71.0287 49.929 68.1395L0 41.6584Z" fill="url(#paint0_linear_240_18777)"/>
<path d="M0 41.6584C8.93786 38.7692 20.4969 39.8601 30.9362 45.3973C41.3756 50.934 48.1839 59.5846 49.929 68.1395L0 41.6584Z" fill="url(#paint1_linear_240_18777)"/>
<path d="M99.8582 41.6584C98.1131 50.2138 91.3052 58.864 80.8654 64.4007C70.4261 69.9375 58.8671 71.0287 49.9292 68.1395L99.8582 41.6584Z" fill="url(#paint2_linear_240_18777)"/>
<path d="M99.8578 41.6584C90.92 38.7692 79.361 39.8601 68.9216 45.3973C58.4822 50.934 51.6739 59.5842 49.9292 68.1395L99.8578 41.6584Z" fill="url(#paint3_linear_240_18777)"/>
<path d="M0 41.6584C1.74517 50.2138 8.553 58.864 18.9928 64.4007C29.4322 69.9375 40.9912 71.0287 49.929 68.1395L0 41.6584Z" fill="url(#paint4_linear_240_18777)"/>
<path d="M0 41.6584C8.93786 38.7692 20.4969 39.8601 30.9362 45.3973C41.3756 50.934 48.1839 59.5846 49.929 68.1395L0 41.6584Z" fill="url(#paint5_linear_240_18777)"/>
<path d="M99.8582 41.6584C98.1131 50.2138 91.3052 58.864 80.8654 64.4007C70.4261 69.9375 58.8671 71.0287 49.9292 68.1395L99.8582 41.6584Z" fill="url(#paint6_linear_240_18777)"/>
<path d="M99.8578 41.6584C90.92 38.7692 79.361 39.8601 68.9216 45.3973C58.4822 50.934 51.6739 59.5842 49.9292 68.1395L99.8578 41.6584Z" fill="url(#paint7_linear_240_18777)"/>
<path d="M21.1026 22.3816C17.9575 30.5923 19.145 41.2108 25.1726 50.8008C31.2001 60.3909 40.6164 66.6452 49.929 68.2484L21.1026 22.3816Z" fill="url(#paint8_linear_240_18777)"/>
<path d="M49.9292 68.2481L42.2657 56.0539L39.1632 51.1205L35.441 45.1957C35.3904 45.1221 35.3483 45.0485 35.3019 44.9788L35.0405 44.5606C34.9984 44.4948 34.9604 44.4289 34.9183 44.367L34.6907 44.003C34.4757 43.6583 34.2944 43.3718 34.1595 43.1588C34.1553 43.151 34.1511 43.1472 34.1469 43.1394L21.1045 22.3833C26.7194 23.3514 32.3722 26.0079 37.3 30.07C37.9871 30.6354 38.6615 31.2279 39.3149 31.8475C40.4278 32.9008 41.4943 34.0276 42.5018 35.2281C43.7116 36.6609 44.8371 38.1982 45.8614 39.8285C47.6277 42.6438 48.9808 45.5481 49.9292 48.4524C52.2098 55.4459 52.1507 62.4469 49.9292 68.2481Z" fill="url(#paint9_linear_240_18777)"/>
<path d="M78.7556 22.3816C81.9007 30.5923 80.7128 41.2108 74.6857 50.8008C68.6585 60.3909 59.2418 66.6452 49.9292 68.2484L78.7556 22.3816Z" fill="url(#paint10_linear_240_18777)"/>
<path d="M78.7538 22.3833L65.7114 43.1394C65.7072 43.1472 65.703 43.151 65.6988 43.1588C65.5639 43.3718 65.3826 43.6583 65.1676 44.003L64.94 44.367C64.8979 44.4289 64.8599 44.4948 64.8178 44.5606L64.5564 44.9788C64.51 45.0485 64.4679 45.1221 64.4173 45.1957L60.6951 51.1205L57.5926 56.0539L49.9291 68.2481C47.7075 62.4473 47.6485 55.4459 49.9291 48.4524C50.8775 45.5481 52.2306 42.6438 53.9969 39.8285C55.0212 38.1982 56.1467 36.6609 57.3565 35.2281C58.364 34.0276 59.4305 32.9008 60.5434 31.8475C61.1968 31.2279 61.8712 30.6354 62.5583 30.07C67.4861 26.0079 73.1389 23.3514 78.7538 22.3833Z" fill="url(#paint11_linear_240_18777)"/>
<path d="M21.1026 22.3816C17.9575 30.5923 19.145 41.2108 25.1726 50.8008C31.2001 60.3909 40.6164 66.6452 49.929 68.2484L21.1026 22.3816Z" fill="url(#paint12_linear_240_18777)"/>
<path d="M49.9292 68.2481L42.2657 56.0539L39.1632 51.1205L35.441 45.1957C35.3904 45.1221 35.3483 45.0485 35.3019 44.9788L35.0405 44.5606C34.9984 44.4948 34.9604 44.4289 34.9183 44.367L34.6907 44.003C34.4757 43.6583 34.2944 43.3718 34.1595 43.1588C34.1553 43.151 34.1511 43.1472 34.1469 43.1394L21.1045 22.3833C26.7194 23.3514 32.3722 26.0079 37.3 30.07C37.9871 30.6354 38.6615 31.2279 39.3149 31.8475C40.4278 32.9008 41.4943 34.0276 42.5018 35.2281C43.7116 36.6609 44.8371 38.1982 45.8614 39.8285C47.6277 42.6438 48.9808 45.5481 49.9292 48.4524C52.2098 55.4459 52.1507 62.4469 49.9292 68.2481Z" fill="url(#paint13_linear_240_18777)"/>
<path d="M78.7556 22.3816C81.9007 30.5923 80.7128 41.2108 74.6857 50.8008C68.6585 60.3909 59.2418 66.6452 49.9292 68.2484L78.7556 22.3816Z" fill="url(#paint14_linear_240_18777)"/>
<path d="M78.7538 22.3833L65.7114 43.1394C65.7072 43.1472 65.703 43.151 65.6988 43.1588C65.5639 43.3718 65.3826 43.6583 65.1676 44.003L64.94 44.367C64.8979 44.4289 64.8599 44.4948 64.8178 44.5606L64.5564 44.9788C64.51 45.0485 64.4679 45.1221 64.4173 45.1957L60.6951 51.1205L57.5926 56.0539L49.9291 68.2481C47.7075 62.4473 47.6485 55.4459 49.9291 48.4524C50.8775 45.5481 52.2306 42.6438 53.9969 39.8285C55.0212 38.1982 56.1467 36.6609 57.3565 35.2281C58.364 34.0276 59.4305 32.9008 60.5434 31.8475C61.1968 31.2279 61.8712 30.6354 62.5583 30.07C67.4861 26.0079 73.1389 23.3514 78.7538 22.3833Z" fill="url(#paint15_linear_240_18777)"/>
<path d="M49.929 15.285V68.248C44.8621 64.2555 41.0092 58.2417 39.1756 51.1629C39.1671 51.1513 39.1671 51.1358 39.1629 51.1203C38.3999 48.1657 37.9868 45.0251 37.9868 41.7684C37.9868 38.3026 38.4505 34.9685 39.3147 31.8473C39.9891 29.3845 40.9123 27.0572 42.0504 24.9041C44.0696 21.0627 46.7632 17.7789 49.929 15.285Z" fill="url(#paint16_linear_240_18777)"/>
<path d="M61.8709 41.7684C61.8709 45.0251 61.4578 48.1657 60.6948 51.1203C60.6906 51.1358 60.6906 51.1513 60.6821 51.1629C58.8485 58.2417 54.9956 64.2555 49.9287 68.248V15.285C53.0945 17.7789 55.7881 21.0627 57.8073 24.9041C58.9454 27.0572 59.8686 29.3845 60.543 31.8473C61.4072 34.9685 61.8709 38.3026 61.8709 41.7684Z" fill="url(#paint17_linear_240_18777)"/>
<path d="M33.9787 12.1024L37.1647 23.0257C35.8794 22.4595 34.7231 21.4147 33.9192 20.0478C33.9167 20.0458 33.9159 20.0427 33.9142 20.0396C33.5791 19.4688 33.3051 18.8423 33.1091 18.1704C32.9004 17.4556 32.7958 16.7446 32.7862 16.0569C32.7773 15.5147 32.8275 14.9877 32.9329 14.4862C33.1175 13.5913 33.4758 12.7773 33.9787 12.1024Z" fill="url(#paint18_linear_240_18777)"/>
<path d="M38.0345 16.9579C38.2306 17.6293 38.3343 18.2981 38.3545 18.9463C38.3545 18.9498 38.3553 18.9529 38.3545 18.9556C38.4021 20.5089 37.9692 21.9448 37.1645 23.0252L33.9785 12.1019C34.7815 12.4554 35.5344 12.996 36.1819 13.6857C36.5461 14.0718 36.8766 14.5051 37.1637 14.9787C37.53 15.5789 37.8259 16.243 38.0345 16.9579Z" fill="url(#paint19_linear_240_18777)"/>
<path d="M5.76163 26.6567L13.6743 35.3197C12.2491 35.3054 10.7202 34.8078 9.36282 33.8811C9.35987 33.8803 9.35734 33.8776 9.35439 33.8757C8.78827 33.4888 8.25123 33.0272 7.76477 32.4944C7.24713 31.9275 6.82475 31.3238 6.49974 30.7042C6.24218 30.2163 6.04532 29.7194 5.91001 29.2238C5.66636 28.3405 5.6162 27.4637 5.76163 26.6567Z" fill="url(#paint20_linear_240_18777)"/>
<path d="M11.6712 29.4828C12.1576 30.0157 12.5594 30.5814 12.8759 31.1607C12.8776 31.1638 12.8797 31.1662 12.8802 31.1693C13.6377 32.5583 13.9062 34.0279 13.6739 35.3197L5.76123 26.6567C6.65152 26.6656 7.5827 26.8631 8.4869 27.2368C8.99485 27.4455 9.49353 27.7096 9.97155 28.0276C10.5794 28.4288 11.1531 28.9159 11.6712 29.4828Z" fill="url(#paint21_linear_240_18777)"/>
<path d="M93.4217 26.6567L85.509 35.3197C86.9343 35.3054 88.4627 34.8078 89.8205 33.8811C89.8235 33.8803 89.826 33.8776 89.8289 33.8757C90.3951 33.4888 90.9321 33.0272 91.4186 32.4944C91.9362 31.9275 92.3586 31.3238 92.6836 30.7042C92.9412 30.2163 93.138 29.7194 93.2733 29.2238C93.517 28.3405 93.5667 27.4637 93.4217 26.6567Z" fill="url(#paint22_linear_240_18777)"/>
<path d="M87.5109 29.4828C87.0245 30.0157 86.6227 30.5814 86.3061 31.1607C86.3045 31.1638 86.3024 31.1662 86.3019 31.1693C85.5444 32.5583 85.2759 34.0279 85.5082 35.3197L93.4209 26.6567C92.5306 26.6656 91.5994 26.8631 90.6952 27.2368C90.1873 27.4455 89.6886 27.7096 89.2106 28.0276C88.6027 28.4288 88.0286 28.9159 87.5109 29.4828Z" fill="url(#paint23_linear_240_18777)"/>
<path d="M50.1056 0.793884V12.1025C49.0239 11.2502 48.201 9.96607 47.8094 8.45467C47.8077 8.45235 47.8077 8.44887 47.8069 8.44577C47.6438 7.81495 47.5557 7.14425 47.5557 6.44915C47.5557 5.70913 47.6547 4.99738 47.8394 4.33094C47.9835 3.80507 48.1804 3.30824 48.4236 2.84859C48.8544 2.02763 49.4294 1.32634 50.1056 0.793884Z" fill="url(#paint24_linear_240_18777)"/>
<path d="M52.6551 6.44817C52.6551 7.14366 52.567 7.81398 52.4039 8.44479C52.403 8.44828 52.403 8.45137 52.4013 8.4537C52.0097 9.9651 51.1873 11.2492 50.1052 12.1015V0.792908C50.7814 1.32536 51.3563 2.02666 51.7876 2.84683C52.0308 3.30649 52.2277 3.80332 52.3718 4.32919C52.556 4.99641 52.6551 5.70816 52.6551 6.44817Z" fill="url(#paint25_linear_240_18777)"/>
<path d="M66.2495 12.1022L63.0635 23.0255C64.3487 22.4594 65.505 21.4146 66.3089 20.0476C66.3114 20.0457 66.3123 20.0426 66.314 20.0395C66.6491 19.4687 66.9231 18.8422 67.1191 18.1703C67.3278 17.4555 67.4323 16.7445 67.442 16.0567C67.4508 15.5146 67.4007 14.9876 67.2953 14.4861C67.1107 13.5912 66.7528 12.7772 66.2495 12.1022Z" fill="url(#paint26_linear_240_18777)"/>
<path d="M62.1936 16.9579C61.9976 17.6293 61.8939 18.2981 61.8737 18.9463C61.8737 18.9498 61.8728 18.9529 61.8737 18.9556C61.826 20.5089 62.259 21.9448 63.0637 23.0252L66.2496 12.1019C65.4466 12.4554 64.6938 12.996 64.0463 13.6857C63.6821 14.0718 63.3516 14.5051 63.0645 14.9787C62.6986 15.5789 62.4023 16.243 62.1936 16.9579Z" fill="url(#paint27_linear_240_18777)"/>
<defs>
<linearGradient id="paint0_linear_240_18777" x1="18.9926" y1="64.4009" x2="24.2371" y2="54.5129" gradientUnits="userSpaceOnUse">
<stop stop-color="#62711C"/>
<stop offset="1" stop-color="#BED64C"/>
</linearGradient>
<linearGradient id="paint1_linear_240_18777" x1="24.9643" y1="54.8994" x2="30.2088" y2="45.0114" gradientUnits="userSpaceOnUse">
<stop stop-color="#62711C"/>
<stop offset="1" stop-color="#BED64C"/>
</linearGradient>
<linearGradient id="paint2_linear_240_18777" x1="80.8659" y1="64.4009" x2="75.6213" y2="54.5129" gradientUnits="userSpaceOnUse">
<stop stop-color="#62711C"/>
<stop offset="1" stop-color="#BED64C"/>
</linearGradient>
<linearGradient id="paint3_linear_240_18777" x1="74.8937" y1="54.8994" x2="69.6492" y2="45.0114" gradientUnits="userSpaceOnUse">
<stop stop-color="#62711C"/>
<stop offset="1" stop-color="#BED64C"/>
</linearGradient>
<linearGradient id="paint4_linear_240_18777" x1="37.2531" y1="48.6445" x2="14.8319" y2="62.1673" gradientUnits="userSpaceOnUse">
<stop offset="0.1296" stop-color="#394110"/>
<stop offset="0.8627" stop-color="#394110" stop-opacity="0"/>
</linearGradient>
<linearGradient id="paint5_linear_240_18777" x1="35.6312" y1="51.3909" x2="17.0171" y2="58.6454" gradientUnits="userSpaceOnUse">
<stop offset="0.1044" stop-color="#394110"/>
<stop offset="0.8627" stop-color="#394110" stop-opacity="0"/>
</linearGradient>
<linearGradient id="paint6_linear_240_18777" x1="68.3701" y1="50.1591" x2="79.1921" y2="59.4764" gradientUnits="userSpaceOnUse">
<stop offset="0.1296" stop-color="#394110"/>
<stop offset="0.8627" stop-color="#394110" stop-opacity="0"/>
</linearGradient>
<linearGradient id="paint7_linear_240_18777" x1="67.3125" y1="52.4157" x2="80.6292" y2="57.5849" gradientUnits="userSpaceOnUse">
<stop offset="0.1296" stop-color="#394110"/>
<stop offset="0.8627" stop-color="#394110" stop-opacity="0"/>
</linearGradient>
<linearGradient id="paint8_linear_240_18777" x1="25.1723" y1="50.8009" x2="35.0588" y2="44.5873" gradientUnits="userSpaceOnUse">
<stop stop-color="#9F1537"/>
<stop offset="1" stop-color="#BE2A4C"/>
</linearGradient>
<linearGradient id="paint9_linear_240_18777" x1="21.1044" y1="45.3155" x2="51.6175" y2="45.3155" gradientUnits="userSpaceOnUse">
<stop stop-color="#9F1537"/>
<stop offset="1" stop-color="#BE2A4C"/>
</linearGradient>
<linearGradient id="paint10_linear_240_18777" x1="74.6857" y1="50.8009" x2="64.7992" y2="44.5873" gradientUnits="userSpaceOnUse">
<stop stop-color="#9F1537"/>
<stop offset="1" stop-color="#BE2A4C"/>
</linearGradient>
<linearGradient id="paint11_linear_240_18777" x1="48.2406" y1="45.3155" x2="78.7538" y2="45.3155" gradientUnits="userSpaceOnUse">
<stop stop-color="#9F1537"/>
<stop offset="1" stop-color="#BE2A4C"/>
</linearGradient>
<linearGradient id="paint12_linear_240_18777" x1="44.837" y1="44.2156" x2="29.2868" y2="46.3887" gradientUnits="userSpaceOnUse">
<stop offset="0.1296" stop-color="#891523"/>
<stop offset="0.8627" stop-color="#891523" stop-opacity="0"/>
</linearGradient>
<linearGradient id="paint13_linear_240_18777" x1="40.9672" y1="45.3155" x2="31.1665" y2="45.3155" gradientUnits="userSpaceOnUse">
<stop offset="0.1296" stop-color="#891523"/>
<stop offset="0.8627" stop-color="#891523" stop-opacity="0"/>
</linearGradient>
<linearGradient id="paint14_linear_240_18777" x1="49.9942" y1="49.8031" x2="65.932" y2="44.0575" gradientUnits="userSpaceOnUse">
<stop offset="0.1296" stop-color="#891523"/>
<stop offset="0.8627" stop-color="#891523" stop-opacity="0"/>
</linearGradient>
<linearGradient id="paint15_linear_240_18777" x1="49.5701" y1="49.0729" x2="73.2774" y2="41.8289" gradientUnits="userSpaceOnUse">
<stop offset="0.1296" stop-color="#891523"/>
<stop offset="0.8627" stop-color="#891523" stop-opacity="0"/>
</linearGradient>
<linearGradient id="paint16_linear_240_18777" x1="37.9867" y1="41.7663" x2="49.9289" y2="41.7663" gradientUnits="userSpaceOnUse">
<stop stop-color="#BE2A4C"/>
<stop offset="1" stop-color="#D47789"/>
</linearGradient>
<linearGradient id="paint17_linear_240_18777" x1="49.9286" y1="41.7663" x2="61.8708" y2="41.7663" gradientUnits="userSpaceOnUse">
<stop stop-color="#9F1537"/>
<stop offset="1" stop-color="#BE2A4C"/>
</linearGradient>
<linearGradient id="paint18_linear_240_18777" x1="33.1086" y1="18.1701" x2="35.5415" y2="17.4605" gradientUnits="userSpaceOnUse">
<stop stop-color="#E3BD3D"/>
<stop offset="1" stop-color="#DEA432"/>
</linearGradient>
<linearGradient id="paint19_linear_240_18777" x1="35.5714" y1="17.5637" x2="38.0043" y2="16.8541" gradientUnits="userSpaceOnUse">
<stop stop-color="#E8CF44"/>
<stop offset="1" stop-color="#E3BD3D"/>
</linearGradient>
<linearGradient id="paint20_linear_240_18777" x1="7.76467" y1="32.4938" x2="9.57937" y2="30.8361" gradientUnits="userSpaceOnUse">
<stop stop-color="#BE2A4C"/>
<stop offset="1" stop-color="#D47789"/>
</linearGradient>
<linearGradient id="paint21_linear_240_18777" x1="9.71736" y1="30.9882" x2="11.5321" y2="29.3305" gradientUnits="userSpaceOnUse">
<stop stop-color="#9F1537"/>
<stop offset="1" stop-color="#BE2A4C"/>
</linearGradient>
<linearGradient id="paint22_linear_240_18777" x1="91.4186" y1="32.4938" x2="89.6039" y2="30.8361" gradientUnits="userSpaceOnUse">
<stop stop-color="#BE2A4C"/>
<stop offset="1" stop-color="#D47789"/>
</linearGradient>
<linearGradient id="paint23_linear_240_18777" x1="89.4647" y1="30.9882" x2="87.65" y2="29.3305" gradientUnits="userSpaceOnUse">
<stop stop-color="#9F1537"/>
<stop offset="1" stop-color="#BE2A4C"/>
</linearGradient>
<linearGradient id="paint24_linear_240_18777" x1="47.5556" y1="6.44811" x2="50.1055" y2="6.44811" gradientUnits="userSpaceOnUse">
<stop stop-color="#E3BD3D"/>
<stop offset="1" stop-color="#DEA432"/>
</linearGradient>
<linearGradient id="paint25_linear_240_18777" x1="50.1051" y1="6.4479" x2="52.655" y2="6.4479" gradientUnits="userSpaceOnUse">
<stop stop-color="#E8CF44"/>
<stop offset="1" stop-color="#E3BD3D"/>
</linearGradient>
<linearGradient id="paint26_linear_240_18777" x1="67.1196" y1="18.1699" x2="64.6867" y2="17.4603" gradientUnits="userSpaceOnUse">
<stop stop-color="#E3BD3D"/>
<stop offset="1" stop-color="#DEA432"/>
</linearGradient>
<linearGradient id="paint27_linear_240_18777" x1="64.657" y1="17.5638" x2="62.2241" y2="16.8542" gradientUnits="userSpaceOnUse">
<stop stop-color="#E8CF44"/>
<stop offset="1" stop-color="#E3BD3D"/>
</linearGradient>
</defs>
</svg>
