<svg width="62" height="62" viewBox="0 0 62 62" fill="none" xmlns="http://www.w3.org/2000/svg">
<path d="M45.5312 54.2498H47.4688V56.1873H45.5312V54.2498ZM41.6562 54.2498H43.5938V56.1873H41.6562V54.2498ZM30.3616 54.9657C30.54 55.1282 30.7727 55.2183 31.014 55.2183C31.2554 55.2183 31.4881 55.1282 31.6665 54.9657L36.4822 50.5763C36.8954 50.2125 37.2272 49.7656 37.4559 49.2648C37.6846 48.764 37.805 48.2205 37.8093 47.67C37.806 47.1294 37.6885 46.5955 37.4647 46.1034C37.2408 45.6113 36.9156 45.1719 36.5103 44.8141C35.7644 44.1605 34.8301 43.7608 33.8422 43.6728C32.8544 43.5849 31.8641 43.8133 31.0145 44.3249C30.1648 43.8132 29.1744 43.5848 28.1864 43.6727C27.1983 43.7607 26.2638 44.1604 25.5178 44.8141C25.1127 45.172 24.7875 45.6114 24.5637 46.1035C24.3398 46.5956 24.2223 47.1294 24.2188 47.67C24.2231 48.2205 24.3435 48.764 24.5722 49.2648C24.8009 49.7656 25.1327 50.2125 25.5459 50.5763L30.3616 54.9657ZM26.8227 46.2469C27.3149 45.8233 27.9428 45.5903 28.5922 45.5903C29.2416 45.5903 29.8694 45.8233 30.3616 46.2469C30.54 46.4095 30.7727 46.4996 31.014 46.4996C31.2554 46.4996 31.4881 46.4095 31.6665 46.2469C32.1587 45.8233 32.7865 45.5903 33.4359 45.5903C34.0853 45.5903 34.7131 45.8233 35.2053 46.2469C35.4102 46.4242 35.5755 46.6426 35.6903 46.888C35.8051 47.1333 35.867 47.4001 35.8718 47.671C35.8659 47.9514 35.801 48.2275 35.6814 48.4812C35.5617 48.7349 35.3899 48.9606 35.1772 49.1435L31.0116 52.9381L26.846 49.1435C26.634 48.9601 26.463 48.7341 26.3442 48.4802C26.2253 48.2263 26.1613 47.9503 26.1562 47.67C26.1614 47.3993 26.2233 47.1328 26.3382 46.8876C26.453 46.6424 26.6181 46.4241 26.8227 46.2469Z" fill="#D0217C"/>
<path d="M51.2468 31.5357C51.166 31.3739 51.0415 31.238 50.8874 31.1433C50.7333 31.0487 50.5558 30.999 50.375 31H37.7173C37.9266 29.4046 37.6211 27.784 36.8454 26.3742L42.1977 19.3023L48.1168 18.3152L52.3125 9.91613V1.9375H44.3338L40.362 3.92247L26.288 6.93819L24.1984 18.4295L25.4413 23.807C24.3267 24.6173 23.451 25.7129 22.9061 26.9786C22.3613 28.2444 22.1675 29.6335 22.3451 31H11.625C11.4449 30.9999 11.2685 31.05 11.1153 31.1446C10.9622 31.2393 10.8384 31.3747 10.7579 31.5357L6.88293 39.2857C6.80911 39.4335 6.77428 39.5976 6.78175 39.7626C6.78923 39.9276 6.83875 40.0879 6.92562 40.2283C7.0125 40.3688 7.13383 40.4847 7.27811 40.5651C7.42239 40.6454 7.58481 40.6876 7.74996 40.6875H10.6562V59.0938C10.6562 59.3507 10.7583 59.5971 10.94 59.7788C11.1216 59.9604 11.368 60.0625 11.625 60.0625H50.375C50.6319 60.0625 50.8783 59.9604 51.06 59.7788C51.2416 59.5971 51.3437 59.3507 51.3437 59.0938V40.6875H54.25C54.4155 40.6884 54.5785 40.6469 54.7235 40.5668C54.8684 40.4868 54.9904 40.371 55.0779 40.2304C55.1653 40.0898 55.2153 39.9292 55.223 39.7638C55.2307 39.5984 55.1958 39.4338 55.1218 39.2857L51.2468 31.5357ZM27.962 8.56181L40.8899 5.79119L44.7911 3.875H50.375V9.45887L46.8226 16.5656L41.1166 17.516L34.5969 26.1378C34.4943 26.2794 34.3642 26.3988 34.2144 26.489C34.0646 26.5792 33.8982 26.6384 33.7251 26.6629C33.3074 26.7175 32.8851 26.605 32.55 26.35C32.401 26.2476 32.2742 26.1161 32.1772 25.9635C32.0803 25.8109 32.0151 25.6403 31.9857 25.4619C31.9563 25.2835 31.9633 25.101 32.0061 24.9253C32.049 24.7496 32.1269 24.5844 32.2351 24.4396L38.9689 15.5349L36.362 11.625H30.1794L29.0489 18.4062L29.697 22.2929C28.8421 22.3339 27.9997 22.5148 27.2034 22.8286L26.1766 18.383L27.962 8.56181ZM31.619 22.042L31.0135 18.4062L31.8205 13.5625H35.3254L36.5935 15.4651L31.619 22.042ZM27.0387 25.0548C27.9952 24.4794 29.0977 24.1927 30.2133 24.2294C29.9988 24.887 29.9968 25.5955 30.2075 26.2543C30.4183 26.9132 30.8311 27.489 31.3875 27.9C32.0002 28.3597 32.7449 28.6095 33.511 28.612C33.6789 28.6115 33.8466 28.5989 34.0128 28.5743C34.5342 28.4924 35.028 28.2849 35.4514 27.9697C35.9318 29.2015 35.9723 30.5613 35.566 31.8195C35.1596 33.0776 34.3314 34.1569 33.2213 34.875H26.8411C26.019 34.3378 25.347 33.6004 24.8882 32.7321C24.4293 31.8638 24.1988 30.8931 24.2181 29.9112C24.2375 28.9293 24.5062 27.9685 24.9989 27.119C25.4916 26.2695 26.1922 25.5592 27.0349 25.0548H27.0387ZM49.4062 58.125H12.5937V40.6875H49.4062V58.125ZM9.3174 38.75L12.2237 32.9375H22.8537C23.141 33.6355 23.528 34.2882 24.0027 34.875H19.375V36.8125H42.625V34.875H36.0597C36.5345 34.2882 36.9215 33.6355 37.2087 32.9375H49.7763L52.6825 38.75H9.3174Z" fill="#D0217C"/>
</svg>
