<svg width="62" height="62" viewBox="0 0 62 62" fill="none" xmlns="http://www.w3.org/2000/svg">
<g clip-path="url(#clip0_240_21662)">
<path d="M58.6621 18.8083H54.0152L54.5038 18.1662C55.0308 17.4736 55.8163 16.9691 56.7158 16.7454C59.8955 16.0176 62.3416 12.7117 61.961 9.33656C61.7015 5.81684 58.3861 2.81774 54.7261 3.04428C54.607 3.04951 54.4901 3.07815 54.382 3.12857C54.2739 3.179 54.1768 3.25022 54.0963 3.33816C54.0157 3.42611 53.9533 3.52905 53.9125 3.64113C53.8718 3.7532 53.8535 3.87221 53.8587 3.99135C53.8806 4.49237 54.3053 4.87957 54.8057 4.85875C57.3616 4.68863 59.9583 6.79563 60.1528 9.50716C60.4151 11.8672 58.7535 14.4087 56.2775 14.983C54.9782 15.3061 53.835 16.0461 53.0585 17.0665L51.733 18.8085H42.3599L48.2519 12.9228C49.1721 12.0035 49.7635 10.7533 49.9174 9.40207C50.0683 8.28767 50.5456 7.16031 51.4683 6.2762C51.6398 6.10892 51.7382 5.88067 51.7421 5.64116C51.746 5.40165 51.6552 5.17029 51.4893 4.99746C51.3234 4.82464 51.096 4.72435 50.8565 4.71844C50.6171 4.71252 50.385 4.80147 50.2108 4.9659C49.1397 5.95922 48.2668 7.64402 48.1131 9.1966C48.0055 10.141 47.599 11.008 46.9684 11.638L45.1103 13.4943C39.3797 10.2451 34.6333 8.59835 30.9959 8.59835C22.6067 8.59835 10.466 17.4976 8.7234 18.8083H3.32964C1.49361 18.8083 0 20.3021 0 22.138V24.2779C0 32.6807 0.000242946 46.7438 14.5287 52.3024C14.2815 52.9507 14.0216 53.8843 13.8478 55.1939C13.5513 57.0439 15.1408 58.9858 17.1481 58.9667H44.844C46.7109 59.0162 48.4154 57.1944 48.147 55.2139C47.9813 53.8982 47.7159 52.9582 47.4585 52.3041L47.4618 52.3029C61.9915 46.7447 61.9918 32.6809 61.9918 24.2779V22.138C61.9918 20.3021 60.4981 18.8083 58.6621 18.8083ZM3.32964 20.6245H19.2029C19.7044 20.6245 20.111 20.2181 20.111 19.7164C20.111 19.2148 19.7044 18.8083 19.2029 18.8083H11.8471C15.9307 15.9907 24.7962 10.4145 30.9959 10.4145C34.1796 10.4145 38.5829 11.9376 43.7751 14.8276L39.7902 18.8083H23.4406C22.9391 18.8083 22.5326 19.2148 22.5326 19.7164C22.5326 20.2181 22.9391 20.6245 23.4406 20.6245H58.6621C59.4967 20.6245 60.1756 21.3034 60.1756 22.138V23.3698H1.81616V22.138C1.81616 21.3035 2.49505 20.6245 3.32964 20.6245ZM46.8127 50.6066C46.5962 50.6899 46.3662 50.7327 46.1342 50.7329H34.8617C34.3601 50.7329 33.9536 51.1394 33.9536 51.641C33.9536 52.1426 34.3601 52.5491 34.8617 52.5491H45.5769C45.794 52.9738 46.1466 53.8654 46.345 55.4409C46.4336 56.1618 45.8804 57.1375 44.844 57.1505H17.1481C16.4155 57.1486 15.5287 56.4659 15.6481 55.4329C15.8549 53.8751 16.1906 52.9829 16.4003 52.5491H30.6239C31.1254 52.5491 31.532 52.1426 31.532 51.641C31.532 51.1394 31.1254 50.7329 30.6239 50.7329H15.8577C15.6263 50.7329 15.3981 50.6904 15.179 50.6066C2.28667 45.6748 1.83275 33.6166 1.81677 25.186H60.1749C60.159 33.6166 59.7051 45.6748 46.8127 50.6066Z" fill="#D0217C"/>
<path d="M46.4671 37.525C46.2497 37.4229 41.8303 35.3877 37.7397 36.2542C36.7416 31.2976 31.8477 27.6687 31.6272 27.5075C31.4702 27.3927 31.2804 27.3313 31.0858 27.3325C30.8913 27.3337 30.7023 27.3974 30.5466 27.5142C30.3278 27.6781 25.4784 31.3654 24.401 36.2868C20.2696 35.338 15.7448 37.4218 15.5248 37.5251C15.3487 37.6077 15.2037 37.7448 15.1114 37.916C15.019 38.0871 14.984 38.2835 15.0116 38.476C15.0511 38.7516 16.0317 45.254 20.5485 47.6334C23.9498 49.5727 29.3397 48.0279 30.9959 47.2606C32.7481 48.186 38.612 49.4266 41.4434 47.6334C42.2971 47.1837 43.0842 46.5517 43.783 45.7551C43.9418 45.5741 44.0221 45.3373 44.0064 45.097C43.9907 44.8567 43.8801 44.6324 43.699 44.4736C43.518 44.3148 43.2813 44.2344 43.0409 44.2502C42.8006 44.2659 42.5764 44.3765 42.4176 44.5575C41.8659 45.1864 41.2535 45.6807 40.597 46.0265C37.6506 47.5788 33.6086 46.3168 32.0528 45.7241C32.4088 44.1215 33.5646 40.1506 36.5057 38.6012C39.4521 37.0489 43.4948 38.3111 45.0503 38.9038C44.8851 39.6433 44.6691 40.3704 44.4036 41.0801C44.319 41.3055 44.3275 41.5554 44.4271 41.7746C44.5267 41.9939 44.7093 42.1646 44.9348 42.2492C45.0464 42.2911 45.1652 42.3106 45.2844 42.3066C45.4036 42.3026 45.5208 42.2751 45.6294 42.2258C45.738 42.1764 45.8358 42.1062 45.9172 42.0191C45.9986 41.932 46.0621 41.8297 46.104 41.718C46.7626 39.9628 46.9719 38.536 46.9805 38.476C47.008 38.2835 46.973 38.0871 46.8805 37.9159C46.7881 37.7447 46.6432 37.6077 46.4671 37.525ZM21.395 46.0265C18.4638 44.4825 17.3018 40.5048 16.9431 38.902C18.4973 38.3071 22.5306 37.0442 25.4863 38.6012C28.4169 40.1449 29.579 44.1211 29.938 45.7245C28.3805 46.3179 24.3402 47.5782 21.395 46.0265ZM30.9959 42.9071C30.2363 40.8494 28.6848 38.1207 26.1324 36.8927C26.7866 33.4316 29.8445 30.4899 31.0985 29.409C32.3563 30.4697 35.4046 33.3554 35.998 36.8276C33.4808 37.9409 31.7431 40.7924 30.9959 42.9071Z" fill="#D0217C"/>
</g>
<defs>
<clipPath id="clip0_240_21662">
<rect width="62" height="62" fill="white"/>
</clipPath>
</defs>
</svg>
