<svg width="40" height="31" viewBox="0 0 40 31" fill="none" xmlns="http://www.w3.org/2000/svg">
<path d="M10.4875 17.2227V17.2233C5.15243 17.2362 1 21.3332 1 21.3332C1 21.3332 5.1522 25.4302 10.4875 25.4431V25.4438C10.4917 25.4438 10.4957 25.4436 10.5 25.4436C10.5043 25.4436 10.5083 25.4438 10.5125 25.4438V25.4431C15.8476 25.4302 20 21.3332 20 21.3332C20 21.3332 15.8478 17.2362 10.5125 17.2233V17.2227C10.5083 17.2227 10.5043 17.2229 10.5 17.2229C10.496 17.2229 10.4917 17.2227 10.4875 17.2227Z" stroke="#D0217C" stroke-miterlimit="10"/>
<path d="M29.5125 25.4435V25.4429C34.8476 25.43 39 21.333 39 21.333C39 21.333 34.8478 17.236 29.5125 17.2231V17.2224C29.5083 17.2224 29.5043 17.2226 29.5 17.2226C29.4957 17.2226 29.4917 17.2224 29.4875 17.2224V17.2231C24.1524 17.236 20 21.333 20 21.333C20 21.333 24.1522 25.43 29.4875 25.4429V25.4435C29.4917 25.4435 29.4957 25.4433 29.5 25.4433C29.5043 25.4433 29.5083 25.4435 29.5125 25.4435Z" stroke="#D0217C" stroke-miterlimit="10"/>
<path d="M14.2299 23.9953L14.2301 23.9956C12.1298 26.404 12.515 29.8921 12.515 29.8921C12.515 29.8921 16.1793 29.6394 18.2921 27.2411L18.2923 27.2413C18.294 27.2395 18.2954 27.2374 18.2971 27.2354C18.2987 27.2336 18.3004 27.2318 18.302 27.23L18.3018 27.2298C20.402 24.8213 20.0168 21.3333 20.0168 21.3333C20.0168 21.3333 16.3526 21.586 14.2398 23.9843L14.2396 23.984C14.2379 23.9858 14.2365 23.9879 14.2348 23.9899C14.2332 23.9919 14.2315 23.9933 14.2299 23.9953Z" stroke="#D0217C" stroke-miterlimit="10"/>
<path d="M25.8147 23.9953L25.8145 23.9956C27.9147 26.404 27.5295 29.8921 27.5295 29.8921C27.5295 29.8921 23.8653 29.6394 21.7525 27.2411L21.7523 27.2413C21.7506 27.2395 21.7492 27.2374 21.7475 27.2354C21.7459 27.2336 21.7442 27.2318 21.7426 27.23L21.7428 27.2298C19.6425 24.8213 20.0277 21.3333 20.0277 21.3333C20.0277 21.3333 23.692 21.586 25.8048 23.9843L25.805 23.984C25.8067 23.9858 25.8081 23.9879 25.8098 23.9899C25.8114 23.9915 25.8133 23.9933 25.8147 23.9953Z" stroke="#D0217C" stroke-miterlimit="10"/>
<path d="M31.915 4.84317C31.915 4.84317 27.424 5.79389 24.0496 8.97294C23.1269 4.55383 20.0001 1.37207 20.0001 1.37207C20.0001 1.37207 17.0542 4.37051 16.0373 8.58799C12.8078 5.5075 8.59401 4.47065 8.59401 4.47065C8.59401 4.47065 7.41403 10.3482 10.5442 15.0901L10.5437 15.0903C10.5461 15.0941 10.5489 15.0975 10.5513 15.1011C10.5536 15.105 10.556 15.1086 10.5584 15.1125L10.5588 15.1122C13.7117 19.8403 19.7818 21.3331 19.7818 21.3331C19.7818 21.3331 19.7956 21.2642 19.8164 21.1355C19.9331 21.2651 19.9999 21.3331 19.9999 21.3331C19.9999 21.3331 20.0418 21.2904 20.1154 21.2104C20.1261 21.2902 20.1329 21.3331 20.1329 21.3331C20.1329 21.3331 26.2526 20.0381 29.5721 15.4151L29.5726 15.4153C29.5752 15.4117 29.5775 15.4079 29.5801 15.4043C29.5828 15.4007 29.5856 15.3973 29.5882 15.3936L29.5877 15.3934C32.885 10.7555 31.915 4.84317 31.915 4.84317Z" stroke="#D0217C" stroke-miterlimit="10"/>
<path d="M24.3056 11.3391H24.3049C24.2914 5.73396 20.0002 1.37158 20.0002 1.37158C20.0002 1.37158 15.709 5.73396 15.6955 11.3391H15.6948C15.6948 11.3436 15.6951 11.3479 15.6951 11.3522C15.6951 11.3567 15.6948 11.361 15.6948 11.3653H15.6955C15.709 16.9705 20.0002 21.3328 20.0002 21.3328C20.0002 21.3328 24.2914 16.9705 24.3049 11.3653H24.3056C24.3056 11.3608 24.3053 11.3565 24.3053 11.3522C24.3051 11.3479 24.3056 11.3436 24.3056 11.3391Z" stroke="#D0217C" stroke-miterlimit="10"/>
<path d="M17.8175 10.6909L17.817 10.6911C14.6642 5.96299 8.59401 4.47021 8.59401 4.47021C8.59401 4.47021 7.41403 10.3477 10.5442 15.0896L10.5437 15.0899C10.5461 15.0937 10.5489 15.0971 10.5513 15.1007C10.5536 15.1046 10.556 15.1082 10.5584 15.112L10.5588 15.1118C13.7119 19.8399 19.7818 21.3327 19.7818 21.3327C19.7818 21.3327 20.9618 15.4551 17.8317 10.7132L17.8322 10.713C17.8298 10.7092 17.827 10.7058 17.8246 10.7022C17.822 10.6986 17.8199 10.6947 17.8175 10.6909Z" stroke="#D0217C" stroke-miterlimit="10"/>
<path d="M22.4753 10.7608L22.4758 10.761C25.7953 6.13801 31.9149 4.84302 31.9149 4.84302C31.9149 4.84302 32.8849 10.7556 29.5879 15.393L29.5884 15.3933C29.5857 15.3969 29.5829 15.4003 29.5803 15.4039C29.5777 15.4075 29.5753 15.4114 29.5727 15.415L29.5723 15.4147C26.2527 20.0377 20.1331 21.3327 20.1331 21.3327C20.1331 21.3327 19.1631 15.4202 22.4602 10.7827L22.4597 10.7825C22.4623 10.7789 22.4651 10.7755 22.4677 10.7719C22.4703 10.7682 22.4727 10.7646 22.4753 10.7608Z" stroke="#D0217C" stroke-miterlimit="10"/>
</svg>
