<svg width="62" height="62" viewBox="0 0 62 62" fill="none" xmlns="http://www.w3.org/2000/svg">
<path d="M58.945 13.4392H54.8186V9.41309C54.8187 9.30175 54.7968 9.1915 54.7542 9.08863C54.7117 8.98576 54.6492 8.89229 54.5705 8.81356C54.4918 8.73484 54.3983 8.6724 54.2954 8.62982C54.1926 8.58725 54.0823 8.56537 53.971 8.56543C41.4295 8.56543 32.9268 12.3818 31 13.3346C29.0731 12.3818 20.5699 8.56543 8.02898 8.56543C7.91764 8.56537 7.80739 8.58725 7.70452 8.62982C7.60165 8.6724 7.50818 8.73484 7.42945 8.81356C7.35073 8.89229 7.28829 8.98576 7.24572 9.08863C7.20314 9.1915 7.18126 9.30175 7.18132 9.41309V13.4392H3.05493C2.83012 13.4392 2.61451 13.5285 2.45555 13.6875C2.29658 13.8464 2.20728 14.0621 2.20728 14.2869V52.5874C2.20721 52.6987 2.22909 52.809 2.27167 52.9118C2.31425 53.0147 2.37668 53.1082 2.45541 53.1869C2.53413 53.2656 2.6276 53.328 2.73047 53.3706C2.83334 53.4132 2.9436 53.4351 3.05493 53.435H58.945C59.0564 53.4351 59.1666 53.4132 59.2695 53.3706C59.3724 53.328 59.4658 53.2656 59.5445 53.1869C59.6233 53.1082 59.6857 53.0147 59.7283 52.9118C59.7709 52.809 59.7927 52.6987 59.7927 52.5874V14.2893C59.793 14.1778 59.7713 14.0673 59.7289 13.9642C59.6864 13.861 59.624 13.7673 59.5453 13.6883C59.4665 13.6094 59.373 13.5467 59.27 13.504C59.167 13.4612 59.0565 13.4392 58.945 13.4392ZM53.1233 46.8717C42.3702 47.0195 34.7258 49.9407 31.8476 51.2369V14.8119C33.7536 13.895 41.6877 10.4337 53.1233 10.268V46.8717ZM8.87663 10.269C20.288 10.4351 28.2419 13.8969 30.1523 14.8134V51.2384C27.2742 49.9422 19.6273 47.0209 8.87663 46.8732V10.269ZM3.90259 15.1345H7.18132V47.7136C7.18132 47.9384 7.27063 48.154 7.42959 48.313C7.58856 48.4719 7.80417 48.5612 8.02898 48.5612C14.4292 48.5384 20.7859 49.6135 26.8227 51.7397H3.90259V15.1345ZM58.0974 51.7397H35.1714C41.2097 49.6116 47.5687 48.5365 53.971 48.5612C54.1958 48.5612 54.4114 48.4719 54.5704 48.313C54.7293 48.154 54.8186 47.9384 54.8186 47.7136V15.1345H58.0974V51.7397Z" fill="#D0217C"/>
<path d="M35.8795 20.6346C35.9714 20.6345 36.0627 20.6194 36.1498 20.5901C40.3658 19.1952 44.7339 18.311 49.1606 17.9565C49.2715 17.9474 49.3796 17.9165 49.4786 17.8656C49.5777 17.8147 49.6657 17.7448 49.7377 17.6599C49.8097 17.5749 49.8643 17.4767 49.8983 17.3707C49.9324 17.2647 49.9452 17.153 49.936 17.042C49.9269 16.931 49.896 16.823 49.8451 16.7239C49.7942 16.6249 49.7243 16.5369 49.6394 16.4649C49.5545 16.3929 49.4562 16.3383 49.3502 16.3042C49.2442 16.2702 49.1325 16.2574 49.0215 16.2665C44.4584 16.6326 39.9556 17.5447 35.6097 18.9834C35.419 19.0474 35.2573 19.1771 35.1535 19.3494C35.0497 19.5216 35.0105 19.7252 35.0429 19.9236C35.0753 20.1221 35.1773 20.3026 35.3305 20.4329C35.4838 20.5631 35.6784 20.6346 35.8795 20.6346ZM35.8795 26.4612C35.9714 26.461 36.0627 26.446 36.1498 26.4166C40.3657 25.0215 44.7339 24.1373 49.1606 23.7831C49.2724 23.7751 49.3815 23.745 49.4816 23.6946C49.5817 23.6442 49.6709 23.5744 49.7438 23.4893C49.8168 23.4042 49.8722 23.3055 49.9067 23.1988C49.9413 23.0922 49.9544 22.9798 49.9452 22.868C49.936 22.7563 49.9047 22.6475 49.8532 22.548C49.8017 22.4484 49.7309 22.36 49.645 22.288C49.5591 22.216 49.4598 22.1617 49.3528 22.1283C49.2457 22.095 49.1332 22.0831 49.0215 22.0936C44.4584 22.4595 39.9556 23.3715 35.6097 24.8099C35.419 24.8739 35.2573 25.0037 35.1535 25.1759C35.0497 25.3482 35.0105 25.5517 35.0429 25.7502C35.0753 25.9487 35.1773 26.1292 35.3305 26.2594C35.4838 26.3897 35.6784 26.4612 35.8795 26.4612ZM49.0215 39.5674C44.4581 39.9341 39.9552 40.8469 35.6092 42.2862C35.3961 42.3579 35.2203 42.5114 35.1204 42.7128C35.0205 42.9142 35.0046 43.147 35.0764 43.36C35.1481 43.5731 35.3016 43.7489 35.503 43.8489C35.7044 43.9488 35.9372 43.9646 36.1502 43.8929C40.3661 42.4977 44.734 41.6133 49.1606 41.2588C49.2724 41.2509 49.3815 41.2208 49.4816 41.1704C49.5817 41.12 49.6709 41.0502 49.7438 40.9651C49.8168 40.88 49.8722 40.7812 49.9067 40.6746C49.9413 40.568 49.9544 40.4555 49.9452 40.3438C49.936 40.2321 49.9047 40.1233 49.8532 40.0237C49.8017 39.9242 49.7309 39.8358 49.645 39.7638C49.5591 39.6918 49.4598 39.6375 49.3528 39.6041C49.2457 39.5707 49.1332 39.5589 49.0215 39.5693V39.5674ZM35.8795 38.1109C35.9715 38.1107 36.063 38.0957 36.1502 38.0663C40.366 36.6709 44.734 35.7865 49.1606 35.4323C49.2724 35.4243 49.3815 35.3943 49.4816 35.3438C49.5817 35.2934 49.6709 35.2236 49.7438 35.1385C49.8168 35.0534 49.8722 34.9547 49.9067 34.8481C49.9413 34.7414 49.9544 34.629 49.9452 34.5173C49.936 34.4055 49.9047 34.2967 49.8532 34.1972C49.8017 34.0976 49.7309 34.0093 49.645 33.9372C49.5591 33.8652 49.4598 33.8109 49.3528 33.7776C49.2457 33.7442 49.1332 33.7324 49.0215 33.7428C44.4581 34.1084 39.9551 35.0205 35.6092 36.4596C35.4185 36.5237 35.2568 36.6534 35.153 36.8257C35.0491 36.998 35.01 37.2016 35.0425 37.4001C35.075 37.5987 35.177 37.7792 35.3303 37.9094C35.4837 38.0396 35.6783 38.111 35.8795 38.1109ZM35.8795 32.2858C35.9715 32.2858 36.063 32.2709 36.1502 32.2417C40.3659 30.846 44.734 29.9616 49.1606 29.6077C49.3847 29.5892 49.5923 29.4825 49.7377 29.311C49.8831 29.1395 49.9545 28.9173 49.936 28.6932C49.9176 28.4691 49.8109 28.2615 49.6394 28.116C49.4679 27.9706 49.2457 27.8992 49.0215 27.9177C44.4582 28.2837 39.9552 29.1958 35.6092 30.6345C35.4185 30.6986 35.2568 30.8283 35.153 31.0006C35.0491 31.1729 35.01 31.3765 35.0425 31.575C35.075 31.7736 35.177 31.9541 35.3303 32.0843C35.4837 32.2145 35.6783 32.2859 35.8795 32.2858ZM12.8392 17.958C17.2658 18.3125 21.634 19.1967 25.85 20.5915C26.0622 20.6599 26.2927 20.6419 26.4918 20.5414C26.6908 20.441 26.8422 20.2663 26.9133 20.055C26.9844 19.8437 26.9694 19.6129 26.8715 19.4126C26.7737 19.2123 26.6009 19.0587 26.3906 18.9848C22.0443 17.5463 17.5412 16.6342 12.9777 16.268C12.7536 16.2496 12.5314 16.321 12.36 16.4665C12.1885 16.612 12.0819 16.8196 12.0635 17.0437C12.0451 17.2678 12.1165 17.49 12.262 17.6615C12.4075 17.8329 12.6151 17.9396 12.8392 17.958ZM12.8392 23.7831C17.2659 24.1374 21.6341 25.0217 25.85 26.4171C26.0622 26.4854 26.2927 26.4674 26.4918 26.367C26.6908 26.2666 26.8422 26.0918 26.9133 25.8806C26.9844 25.6693 26.9694 25.4385 26.8715 25.2382C26.7737 25.0379 26.6009 24.8842 26.3906 24.8104C22.0443 23.3718 17.5412 22.4597 12.9777 22.0936C12.7554 22.0782 12.5359 22.1511 12.3669 22.2964C12.1978 22.4417 12.0928 22.6478 12.0746 22.8699C12.0564 23.0921 12.1264 23.3125 12.2695 23.4834C12.4126 23.6543 12.6173 23.762 12.8392 23.7831ZM12.8392 41.2569C17.2659 41.6115 21.634 42.4958 25.85 43.8909C26.0595 43.9504 26.2838 43.927 26.4764 43.8255C26.6691 43.7241 26.8153 43.5524 26.8848 43.3461C26.9543 43.1397 26.9417 42.9146 26.8497 42.7173C26.7577 42.5199 26.5933 42.3656 26.3906 42.2862C22.0445 40.8476 17.5416 39.9355 12.9782 39.5693C12.8666 39.5589 12.754 39.5707 12.647 39.6041C12.54 39.6375 12.4407 39.6918 12.3548 39.7638C12.2689 39.8358 12.1981 39.9242 12.1466 40.0237C12.0951 40.1233 12.0638 40.2321 12.0546 40.3438C12.0454 40.4555 12.0585 40.568 12.093 40.6746C12.1276 40.7812 12.183 40.88 12.2559 40.9651C12.3289 41.0502 12.418 41.12 12.5181 41.1704C12.6183 41.2208 12.7274 41.2509 12.8392 41.2588V41.2569ZM12.8392 35.4323C17.2659 35.7867 21.6341 36.671 25.85 38.0663C26.0622 38.1346 26.2927 38.1167 26.4918 38.0162C26.6908 37.9158 26.8422 37.741 26.9133 37.5298C26.9844 37.3185 26.9694 37.0877 26.8715 36.8874C26.7737 36.6871 26.6009 36.5335 26.3906 36.4596C22.0446 35.0206 17.5416 34.1084 12.9782 33.7428C12.8666 33.7324 12.754 33.7442 12.647 33.7776C12.54 33.8109 12.4407 33.8652 12.3548 33.9372C12.2689 34.0093 12.1981 34.0976 12.1466 34.1972C12.0951 34.2967 12.0638 34.4055 12.0546 34.5173C12.0454 34.629 12.0585 34.7414 12.093 34.8481C12.1276 34.9547 12.183 35.0534 12.2559 35.1385C12.3289 35.2236 12.418 35.2934 12.5181 35.3438C12.6183 35.3943 12.7274 35.4243 12.8392 35.4323ZM12.8392 29.6077C17.2659 29.9617 21.6341 30.8461 25.85 32.2417C26.0631 32.3134 26.296 32.2975 26.4974 32.1975C26.6988 32.0974 26.8522 31.9215 26.9239 31.7084C26.9956 31.4953 26.9796 31.2624 26.8796 31.061C26.7796 30.8596 26.6037 30.7062 26.3906 30.6345C22.0443 29.1959 17.5412 28.2838 12.9777 27.9177C12.7536 27.8993 12.5314 27.9707 12.36 28.1162C12.1885 28.2617 12.0819 28.4693 12.0635 28.6934C12.0451 28.9175 12.1165 29.1397 12.262 29.3112C12.4075 29.4827 12.6151 29.5893 12.8392 29.6077Z" fill="#D0217C"/>
</svg>
