<svg width="131" height="130" viewBox="0 0 131 130" fill="none" xmlns="http://www.w3.org/2000/svg">
<g clip-path="url(#clip0_240_24566)">
<path d="M102.333 13.001H28.6669C28.0923 13.001 27.5412 13.2292 27.1348 13.6356C26.7285 14.0419 26.5002 14.593 26.5002 15.1676V114.833C26.5002 115.408 26.7285 115.959 27.1348 116.366C27.5412 116.772 28.0923 117 28.6669 117H102.333C102.908 117 103.459 116.772 103.865 116.366C104.271 115.959 104.5 115.408 104.5 114.833V15.1676C104.5 14.593 104.271 14.0419 103.865 13.6356C103.459 13.2292 102.908 13.001 102.333 13.001ZM100.166 112.667H30.8335V17.3343H100.166V112.667Z" fill="#D0217C"/>
<path d="M113.214 64.985L117.452 45.2165C117.517 44.9167 117.517 44.6064 117.452 44.3065L113.21 24.5099L117.003 3.37638C117.066 3.02864 117.042 2.67094 116.934 2.33447C116.827 1.99799 116.638 1.69294 116.386 1.44589C116.135 1.19717 115.827 1.01421 115.489 0.913285C115.151 0.81236 114.793 0.796597 114.447 0.867398L97.3496 4.2777L81.9534 0.0765707C81.5797 -0.0255236 81.1854 -0.0255236 80.8116 0.0765707L65.4999 4.25604L50.173 0.0765707C49.7999 -0.0249978 49.4065 -0.0249978 49.0334 0.0765707L33.635 4.27337L16.5532 0.867398C16.2064 0.79801 15.848 0.814538 15.5091 0.915539C15.1703 1.01654 14.8613 1.19894 14.6091 1.44683C14.3569 1.69472 14.1693 2.00056 14.0625 2.33765C13.9557 2.67474 13.9331 3.03285 13.9965 3.38071L17.7925 24.5294L13.548 44.3434C13.483 44.6425 13.483 44.9521 13.548 45.2512L17.786 65.0154L13.548 84.7839C13.483 85.0837 13.483 85.394 13.548 85.6939L17.7903 105.491L13.9965 126.624C13.9338 126.972 13.957 127.329 14.0641 127.666C14.1713 128.002 14.359 128.308 14.6111 128.555C14.8632 128.802 15.1719 128.984 15.5104 129.085C15.8489 129.186 16.2068 129.202 16.5532 129.133L33.6502 125.723L49.0572 129.924C49.4303 130.026 49.8238 130.026 50.1969 129.924L65.5107 125.744L80.8311 129.924C81.0169 129.974 81.2085 129.999 81.4009 130C81.5919 129.999 81.7821 129.974 81.9664 129.924L97.3648 125.723L114.447 129.129C114.793 129.198 115.151 129.181 115.489 129.081C115.828 128.98 116.137 128.798 116.389 128.55C116.641 128.303 116.828 127.998 116.936 127.661C117.043 127.325 117.066 126.967 117.003 126.62L113.21 105.56L117.452 85.6549C117.515 85.3562 117.515 85.0478 117.452 84.7492L113.214 64.985ZM108.874 105.907L112.178 124.258L97.7136 121.376C97.3848 121.31 97.0451 121.321 96.7213 121.409L81.4053 125.588L66.0849 121.409C65.7111 121.307 65.3168 121.307 64.9431 121.409L49.6314 125.588L34.3045 121.409C34.1187 121.359 33.9271 121.333 33.7347 121.333H33.7303C33.5884 121.334 33.4468 121.349 33.3078 121.379L18.8238 124.262L22.1323 105.846C22.1821 105.568 22.1777 105.283 22.1193 105.007L17.8813 85.2454L22.1193 65.4769C22.1843 65.177 22.1843 64.8667 22.1193 64.5669L17.8813 44.7962L22.1193 25.019C22.1779 24.7437 22.1823 24.4597 22.1323 24.1827L18.8238 5.74236L33.2905 8.624C33.6193 8.69118 33.9592 8.68004 34.2828 8.5915L49.5989 4.41204L64.9193 8.5915C65.293 8.69359 65.6873 8.69359 66.0611 8.5915L81.3728 4.41204L96.6996 8.5915C97.0233 8.68004 97.3632 8.69118 97.692 8.624L112.176 5.73802L108.868 24.1545C108.818 24.4323 108.822 24.717 108.881 24.993L113.118 44.755L108.881 64.5235C108.816 64.8234 108.816 65.1337 108.881 65.4335L113.123 85.2064L108.887 105.072C108.829 105.347 108.824 105.63 108.874 105.907Z" fill="#D0217C"/>
</g>
<defs>
<clipPath id="clip0_240_24566">
<rect width="130" height="130" fill="white" transform="translate(0.5)"/>
</clipPath>
</defs>
</svg>
