<svg width="32" height="32" viewBox="0 0 32 32" fill="none" xmlns="http://www.w3.org/2000/svg">
<g clip-path="url(#clip0_164_21069)">
<mask id="mask0_164_21069" style="mask-type:luminance" maskUnits="userSpaceOnUse" x="0" y="0" width="32" height="32">
<path d="M32 0H0V32H32V0Z" fill="white"/>
</mask>
<g mask="url(#mask0_164_21069)">
<path d="M15.9999 17C11.7733 17 8.33325 13.56 8.33325 9.33332C8.33325 5.10666 11.7733 1.66666 15.9999 1.66666C20.2266 1.66666 23.6666 5.10666 23.6666 9.33332C23.6666 13.56 20.2266 17 15.9999 17ZM15.9999 3.66666C12.8799 3.66666 10.3333 6.21332 10.3333 9.33332C10.3333 12.4533 12.8799 15 15.9999 15C19.1199 15 21.6666 12.4533 21.6666 9.33332C21.6666 6.21332 19.1199 3.66666 15.9999 3.66666Z" fill="black"/>
<path d="M27.4535 30.3333C26.9068 30.3333 26.4535 29.88 26.4535 29.3333C26.4535 24.7333 21.7603 21 16.0003 21C10.2402 21 5.54687 24.7333 5.54687 29.3333C5.54687 29.88 5.09354 30.3333 4.54687 30.3333C4.00021 30.3333 3.54688 29.88 3.54688 29.3333C3.54688 23.64 9.13353 19 16.0003 19C22.8669 19 28.4535 23.64 28.4535 29.3333C28.4535 29.88 28.0001 30.3333 27.4535 30.3333Z" fill="black"/>
</g>
</g>
<defs>
<clipPath id="clip0_164_21069">
<rect width="32" height="32" fill="white"/>
</clipPath>
</defs>
</svg>
