<svg width="130" height="131" viewBox="0 0 130 131" fill="none" xmlns="http://www.w3.org/2000/svg">
<g clip-path="url(#clip0_240_24560)">
<path d="M97.3182 57.7336C98.0575 56.7371 98.3932 55.4982 98.2579 54.2648C97.7768 49.9209 96.3684 45.8245 93.8249 41.3736L84.0544 24.2752H84.716C85.221 24.2752 85.7054 24.0745 86.0625 23.7174C86.4196 23.3603 86.6202 22.876 86.6202 22.3709V14.4696C86.6202 13.9646 86.4196 13.4802 86.0625 13.1231C85.7054 12.766 85.221 12.5654 84.716 12.5654H82.677V2.65423C82.677 2.1492 82.4763 1.66485 82.1192 1.30774C81.7621 0.950624 81.2778 0.75 80.7727 0.75L49.2267 0.75C48.7217 0.75 48.2373 0.950624 47.8802 1.30774C47.5231 1.66485 47.3225 2.1492 47.3225 2.65423V12.5654H45.2834C44.7784 12.5654 44.294 12.766 43.9369 13.1231C43.5798 13.4802 43.3792 13.9646 43.3792 14.4696V22.3709C43.3792 22.876 43.5798 23.3603 43.9369 23.7174C44.294 24.0745 44.7784 24.2752 45.2834 24.2752H45.9451L42.049 31.0933C41.9249 31.3105 41.8448 31.5499 41.8133 31.798C41.7818 32.046 41.7994 32.2979 41.8652 32.5392C41.931 32.7804 42.0437 33.0064 42.1968 33.2041C42.3499 33.4018 42.5405 33.5674 42.7576 33.6915C43.6666 34.2109 44.8317 33.9002 45.3555 32.9828L50.3314 24.2752H79.668L90.5183 43.2634C92.8258 47.3011 94.0452 50.8235 94.4728 54.6842C94.5462 55.3464 94.0112 55.9304 93.3336 55.9304H36.6659C35.989 55.9304 35.4532 55.3472 35.5266 54.6842C36.2995 47.7066 39.9066 42.7295 40.6135 41.2817C40.7402 41.0645 40.8226 40.8243 40.856 40.575C40.8894 40.3258 40.8731 40.0723 40.808 39.8294C40.743 39.5865 40.6304 39.3588 40.4769 39.1596C40.3233 38.9604 40.1318 38.7936 39.9135 38.6688C39.6951 38.544 39.4542 38.4638 39.2046 38.4326C38.955 38.4014 38.7018 38.42 38.4594 38.4873C38.2171 38.5545 37.9905 38.6691 37.7927 38.8245C37.5948 38.9798 37.4298 39.1728 37.3069 39.3922C36.6014 40.8534 32.6177 46.3531 31.7415 54.2651C31.6064 55.4984 31.942 56.7373 32.6812 57.7338C31.1085 59.6383 31.6638 61.5725 31.5491 62.6747C31.5491 63.8286 31.9459 64.8917 32.6103 65.7346C31.1314 67.6104 31.6608 69.4581 31.5491 70.5876C31.5491 71.7507 31.9522 72.8214 32.6261 73.6674C31.9603 74.5308 31.5997 75.5907 31.6008 76.6809V102.134C31.6008 103.267 31.9835 104.312 32.6261 105.147C31.9278 106.022 31.5479 107.108 31.5491 108.227C31.6577 109.325 31.1342 111.208 32.6106 113.08C31.1316 114.956 31.661 116.804 31.5491 117.933C31.5491 119.027 31.9053 120.038 32.5078 120.858C31.8851 121.664 31.5479 122.654 31.5491 123.672C31.5491 127.575 34.7243 130.75 38.6272 130.75H91.3725C97.1128 130.75 100.12 124.268 97.4919 120.858C98.1158 120.011 98.4518 118.986 98.4506 117.933C98.3419 116.835 98.865 114.952 97.3891 113.08C98.868 111.204 98.3386 109.357 98.4506 108.227C98.4506 107.079 98.0578 106.021 97.3997 105.18C98.0817 104.311 98.4518 103.238 98.4506 102.134V76.6809C98.4506 75.5328 98.0578 74.4751 97.3997 73.6342C98.8662 71.7612 98.3391 69.9305 98.4506 68.7944C98.4506 67.6404 98.0538 66.5773 97.3893 65.7344C98.0779 64.8632 98.4518 63.7849 98.4506 62.6744C98.3386 61.6002 98.8871 59.6335 97.3182 57.7336ZM51.1309 4.55847H78.8687V12.5654H51.1309V4.55847ZM47.1874 16.3739H82.812V20.4667H47.1874V16.3739ZM94.6421 70.5876C94.6418 70.8883 94.5232 71.1767 94.3118 71.3904C94.1004 71.6042 93.8134 71.7262 93.5128 71.7299L36.5001 71.7302C36.1971 71.7299 35.9067 71.6094 35.6925 71.3952C35.4783 71.181 35.3579 70.8906 35.3575 70.5876V68.7946C35.3575 68.1647 35.8701 67.6521 36.5001 67.6521C36.6077 67.6521 36.7133 67.6429 36.8164 67.6257H72.6802C73.7321 67.6257 74.5845 66.7731 74.5845 65.7214C74.5845 64.6698 73.7321 63.8172 72.6802 63.8172H36.5001C36.1971 63.8169 35.9067 63.6964 35.6925 63.4822C35.4783 63.268 35.3579 62.9776 35.3575 62.6747V60.8816C35.3575 60.2517 35.8701 59.7391 36.5001 59.7391H36.6659C96.1556 59.7386 93.3298 59.7401 93.4359 59.7378C94.2217 59.7637 94.6419 60.3005 94.6419 60.8816V62.6747C94.6419 63.3046 94.1293 63.8172 93.4994 63.8172H80.9791C79.9272 63.8172 79.0749 64.6698 79.0749 65.7214C79.0749 66.7731 79.9272 67.6257 80.9791 67.6257L93.4994 67.6521C94.1293 67.6521 94.6419 68.1647 94.6419 68.7946L94.6421 70.5876ZM94.6421 76.6809V102.134C94.6418 102.435 94.5232 102.723 94.3118 102.937C94.1004 103.151 93.8134 103.272 93.5128 103.276H36.532C36.2326 103.271 35.9471 103.148 35.7371 102.935C35.5271 102.721 35.4093 102.433 35.4091 102.134V76.6809C35.4093 76.3814 35.5271 76.0939 35.7371 75.8803C35.9471 75.6667 36.2326 75.544 36.532 75.5387H93.5126C93.8132 75.5423 94.1003 75.6642 94.3117 75.878C94.5231 76.0918 94.6418 76.3803 94.6421 76.6809ZM94.6421 108.227V110.02C94.6421 110.65 94.1295 111.163 93.4996 111.163H54.0997C53.0478 111.163 52.1955 112.015 52.1955 113.067C52.1955 114.119 53.0478 114.971 54.0997 114.971L93.4996 114.998C94.1295 114.998 94.6421 115.51 94.6421 116.14V117.933C94.6421 118.566 94.127 119.076 93.4996 119.076C34.936 119.075 36.5001 119.078 36.4361 119.074C35.7043 118.97 35.3575 118.465 35.3575 117.933V116.14C35.3575 115.51 35.8701 114.998 36.5001 114.998L45.8008 114.971C46.8527 114.971 47.7051 114.119 47.7051 113.067C47.7051 112.015 46.8527 111.163 45.8008 111.163H36.5001C36.1971 111.162 35.9067 111.042 35.6925 110.828C35.4783 110.614 35.3579 110.323 35.3575 110.02V108.227C35.3575 107.651 35.7856 107.092 36.5714 107.085L93.4996 107.085H93.5128C93.8134 107.089 94.1004 107.211 94.3118 107.424C94.5232 107.638 94.6418 107.927 94.6421 108.227ZM91.3725 126.942H38.6272C36.8243 126.942 35.3575 125.475 35.3575 123.672C35.3578 123.471 35.4326 123.278 35.5675 123.129C35.7024 122.98 35.8877 122.887 36.0875 122.867C36.3657 122.89 93.5633 122.896 93.9122 122.867C95.5366 123.024 94.3987 126.942 91.3725 126.942Z" fill="#D0217C"/>
<path d="M66.2651 80.0972C65.9116 79.783 65.4539 79.6116 64.9809 79.6163C64.508 79.621 64.0537 79.8016 63.7066 80.1229C63.0386 80.7408 57.1807 86.3083 57.1807 91.3789C57.1807 95.6904 60.6883 99.1979 65 99.1979C69.3116 99.1979 72.8192 95.6904 72.8192 91.3789C72.8192 87.3132 69.1507 82.6613 66.2651 80.0972ZM65 95.3892C62.7885 95.3892 60.9891 93.5901 60.9891 91.3787C60.9891 89.2952 63.1173 86.2931 65.0154 84.2142C66.7049 86.0308 69.0105 89.0309 69.0105 91.3787C69.0108 93.5901 67.2114 95.3892 65 95.3892Z" fill="#D0217C"/>
</g>
<defs>
<clipPath id="clip0_240_24560">
<rect width="130" height="130" fill="white" transform="translate(0 0.75)"/>
</clipPath>
</defs>
</svg>
