<svg width="130" height="130" viewBox="0 0 130 130" fill="none" xmlns="http://www.w3.org/2000/svg">
<path d="M111.18 39.6292C111.609 38.3686 112.15 37.0803 113.083 36.3742C114.269 35.4784 115.832 35.0384 117.074 34.1273C118.918 32.7743 120.624 31.1858 120.658 28.7224C120.726 23.7959 114.926 19.8659 111.682 16.9597C108.795 14.3732 104.06 10.9627 100.602 14.8185C98.964 16.6449 98.6415 20.1821 98.2248 22.5002C97.8364 24.6541 98.5968 26.7996 97.2498 28.2692C95.4466 30.237 93.5009 32.0001 91.5722 33.7935C83.9477 32.1009 75.8923 31.8955 68.06 32.104C69.3161 29.1769 69.9046 26.0805 70.8093 22.9443C71.9816 18.8869 75.5195 16.3389 77.0747 12.4709C77.6899 10.9386 75.6056 9.48549 74.3041 10.3414C68.0402 14.4654 59.9439 10.2604 53.0999 12.2272C47.2511 13.908 43.135 19.1928 42.3444 25.1124C33.7966 17.0405 22.102 12.2896 10.5119 11.2908C9.17204 11.1752 8.04089 13.0168 8.8831 14.1277C10.5784 16.3633 11.702 18.6789 11.5659 21.5448C11.447 24.0567 10.7498 26.5094 10.6137 29.0248C10.406 32.8642 11.1926 36.7139 12.7128 40.2409C11.1025 40.8264 9.48485 41.3959 7.92079 42.0906C6.07058 42.913 4.17593 44.1008 3.30198 46.0112C2.99679 46.6795 3.45864 49.1223 3.93167 49.5869C6.17163 51.7883 7.11134 54.6724 7.88499 57.6457C8.86532 61.4207 9.73724 65.2268 10.6597 69.0169C12.3695 76.0363 13.9186 83.1173 15.8188 90.0878C17.3547 95.7184 19.8567 100.772 24.9607 103.935C26.6822 105.002 28.5558 105.761 30.4753 106.414C30.4415 109.117 29.8819 113.354 32.2265 114.942C33.3409 115.696 34.8646 115.974 36.1404 116.347C38.0785 116.914 40.0373 117.407 42.0125 117.826C49.3806 119.393 56.9392 120.015 64.4652 119.899C72.0451 119.782 79.6084 118.93 87.07 117.615C89.8111 117.131 93.0713 116.828 94.9586 114.518C96.6547 112.444 96.3487 109.803 95.5883 107.413C102.815 105.05 109.57 101.134 112.904 94.1693C116.141 87.405 115.565 79.409 116.786 72.1554C117.473 68.0739 118.401 64.0248 119.594 60.0606C120.094 58.3988 120.658 56.6768 121.459 55.1013C122.884 54.4048 127.528 50.7508 126.697 49.4046C123.297 43.8944 117.025 41.7123 111.18 39.6292ZM95.1701 35.7168C97.2257 33.9928 99.7209 31.8183 101.123 29.4864C102.206 27.6865 101.587 25.457 101.86 23.5026C102.092 21.8454 102.526 16.9732 104.562 16.8815C106.913 16.7756 109.409 19.9642 110.993 21.4198C112.807 23.086 115.124 24.8334 116.342 27.0164C118.543 30.9596 111.909 31.9963 109.973 34.1708C107.482 36.9683 107.086 41.0138 105.485 44.2828C103.531 48.2715 102.439 52.6925 100.079 56.4551C92.7773 57.5406 85.3871 58.0247 78.0096 58.0222C76.0276 58.0215 74.0517 57.8942 72.0735 57.8285C77.1054 52.3979 82.5037 47.4143 87.9744 42.4143C90.3987 40.199 92.6539 37.8278 95.1701 35.7168ZM88.2009 37.0041C81.4439 43.6953 74.1784 49.7449 67.8119 56.8667C67.5824 57.1236 67.458 57.3981 67.3856 57.6751C58.3702 57.1551 49.3989 56.0136 40.4977 54.4647C44.2454 52.2326 47.4568 49.215 48.9886 44.9549C49.375 43.8804 49.5896 42.8046 49.7298 41.7316C50.3711 42.0015 51.0381 42.232 51.8067 42.3516C53.6439 42.6372 55.5201 42.5425 57.3193 42.0736C60.8331 41.1616 63.6966 38.8104 65.819 35.9275C73.2034 35.6658 80.8711 35.7077 88.2009 37.0041ZM46.0321 25.5821C46.6296 19.7527 51.6932 15.5744 57.3878 15.3769C61.834 15.223 66.432 16.23 70.7702 15.5797C69.6634 16.9572 68.5406 18.3301 67.8571 19.9845C66.4203 23.4686 66.2278 27.3049 64.5983 30.7359C63.1449 33.7957 60.8389 36.7304 57.6118 38.0228C56.1521 38.6068 54.5469 38.8716 52.9792 38.7246C51.6798 38.6027 50.7456 38.1086 49.7155 37.5581C49.635 37.0003 49.5375 36.4455 49.4007 35.8986C50.672 33.8539 52.201 32.0933 54.1637 30.5023C56.1026 28.9306 58.6091 27.6279 60.9755 26.5538C61.9023 26.1326 62.1277 24.7884 61.6519 23.9739C61.0943 23.0207 60.0033 22.875 59.0725 23.2975C56.3712 24.5236 53.8067 25.9638 51.4974 27.8358C50.0928 28.9751 48.885 30.3287 47.7724 31.7587C46.9667 30.2576 45.9833 28.859 44.8436 27.5928C44.7479 27.4864 45.9346 26.534 46.0321 25.5821ZM39.8076 27.8884C43.0101 30.837 45.6459 34.3678 46.0509 38.5555C45.9945 38.8254 46.0166 39.0958 46.092 39.357C46.1162 40.2828 46.0715 41.2283 45.8549 42.2186C45.1625 45.3924 43.2292 47.8365 40.792 49.7479C40.664 49.2046 40.3431 48.7125 39.798 48.4532C38.4099 44.1485 36.1067 40.1749 33.7471 36.3414C31.5465 32.7649 28.817 29.2104 24.5908 28.0311C22.249 27.3778 21.2509 31.0147 23.5876 31.6672C27.0115 32.6227 29.0699 35.8889 30.8036 38.7571C33.0771 42.5197 35.3769 46.339 36.5574 50.6076C36.6645 50.9961 36.9032 51.2934 37.1914 51.525C28.1589 52.0361 19.6543 47.0095 16.0785 38.6286C14.1247 34.0466 14.2065 29.5228 14.9558 24.6978C15.4816 21.3119 15.2912 18.3486 14.0676 15.5168C23.6089 17.0428 32.6827 21.3307 39.8076 27.8884ZM9.9688 45.283L10.0574 45.2431C10.1572 45.2007 10.2575 45.1596 10.3578 45.1179C11.0912 44.8122 11.829 44.517 12.5708 44.2323C13.1876 43.9954 13.814 43.7837 14.4368 43.5628C16.0765 46.2349 18.2139 48.5193 20.6953 50.3438C16.6879 49.2431 12.7999 47.8053 9.21317 45.6885C9.47038 45.5635 9.70677 45.3993 9.9688 45.283ZM89.899 113.231C87.1312 113.988 84.1706 114.327 81.3352 114.742C75.321 115.621 69.2392 116.115 63.1601 116.142C57.2682 116.167 51.3583 115.748 45.5583 114.692C42.5787 114.149 39.6286 113.452 36.7265 112.587C35.0839 112.097 34.4611 112.265 34.4019 110.445C34.3697 109.477 34.3387 108.509 34.3065 107.542C36.9486 108.171 39.6395 108.633 42.2527 109.072C56.4953 111.46 71.0658 112.267 85.3645 109.879C87.5102 109.521 89.7411 109.046 91.9709 108.474C92.6145 110.562 92.631 112.483 89.899 113.231ZM115.005 62.4775C113.335 68.8985 112.459 75.4041 111.853 81.9981C111.286 88.1627 109.972 93.8918 105.149 98.1351C101.13 101.671 95.8843 103.638 90.7638 104.93C77.2027 108.352 62.7849 108.132 49.0028 106.305C42.7841 105.48 36.18 104.674 30.2983 102.384C24.1154 99.9769 21.1503 95.302 19.455 89.0848C17.391 81.5172 15.7109 73.8246 13.8551 66.2028C12.5784 60.9553 11.7918 54.6122 8.83155 49.8188C14.5297 52.8463 20.8769 54.3977 27.1826 55.7442C35.4171 57.5025 43.7119 58.967 52.0629 60.0377C68.7907 62.1817 85.7964 62.5758 102.488 59.9047C107.099 59.1668 111.672 58.185 116.173 56.9408C116.353 56.8911 116.526 56.8329 116.705 56.7826C116.034 58.6387 115.501 60.5661 115.005 62.4775ZM118.821 52.2667C116.912 53.019 114.764 53.4288 113.05 53.8693C110.327 54.5691 107.574 55.1439 104.809 55.6599C106.197 52.6138 107.098 49.3749 108.652 46.3524C109.174 45.335 109.578 44.26 109.961 43.1796C113.968 44.5753 118.397 46.0475 121.465 48.9593C122.207 50.4919 121.236 51.5735 118.821 52.2667Z" fill="#D0217C"/>
<path d="M78.1259 73.243C77.9416 72.7789 73.6371 70.8482 73.2768 70.9036C66.0448 68.7713 58.2616 68.282 50.8785 69.812C47.584 70.495 44.1903 71.844 42.0321 74.5387C39.8871 77.2164 39.423 80.7808 40.3916 84.0325C42.7078 91.8051 50.9739 94.527 58.2499 95.2491C62.7813 95.699 67.3773 95.4266 71.84 94.5316C75.3015 93.8374 78.9572 92.8129 81.6707 90.4388C84.7536 87.7419 85.476 83.5516 83.9642 79.8177C82.8039 76.9503 80.6155 74.9041 78.1259 73.243ZM78.9821 87.7881C76.7469 89.6441 73.6168 90.3398 70.8378 90.8954C67.4194 91.5786 63.9173 91.8112 60.4365 91.6398C54.7109 91.3585 47.0892 90.0303 44.4478 84.1628C43.3326 81.6887 43.3085 78.6926 45.2087 76.5984C47.0884 74.5265 50.0675 73.7582 52.7211 73.2895C59.7962 72.039 67.1071 72.7903 73.8979 75.0496C76.2546 76.3046 78.5804 77.8014 79.9424 80.1328C81.4508 82.7168 81.38 85.7977 78.9821 87.7881Z" fill="#D0217C"/>
</svg>
